<?xml version="1.0" encoding="utf-8"?>
<!-- Generator: Adobe Illustrator 24.0.1, SVG Export Plug-In . SVG Version: 6.00 Build 0)  -->
<svg version="1.1" id="Layer_1" xmlns="http://www.w3.org/2000/svg" xmlns:xlink="http://www.w3.org/1999/xlink" x="0px" y="0px"
	 viewBox="0 0 120 120" style="enable-background:new 0 0 120 120;" xml:space="preserve">
<style type="text/css">
	.st0{fill-rule:evenodd;clip-rule:evenodd;fill:#00559B;}
</style>
<path class="st0" d="M72.47,74.42c-3,2.86-6.97,4.7-11.38,4.98v-5.47C65.02,73.95,68.83,74.12,72.47,74.42L72.47,74.42z
	 M58.76,79.39c-4.4-0.28-8.38-2.12-11.38-4.98c3.64-0.3,7.45-0.47,11.38-0.49V79.39L58.76,79.39z M45.45,72.25
	c-2.09-2.75-3.41-6.11-3.65-9.77h16.96v9.12C54.14,71.63,49.67,71.85,45.45,72.25L45.45,72.25z M41.8,60.15
	c0.23-3.66,1.55-7.02,3.65-9.77c4.23,0.4,8.7,0.62,13.32,0.66v9.12H41.8L41.8,60.15z M47.39,48.21c3-2.86,6.97-4.7,11.38-4.98v5.47
	C54.84,48.67,51.03,48.5,47.39,48.21L47.39,48.21z M61.1,43.23c4.4,0.28,8.38,2.12,11.38,4.98c-3.64,0.3-7.45,0.47-11.38,0.49V43.23
	L61.1,43.23z M84.16,49.1c1.7,3.34,2.72,7.09,2.89,11.05H61.1v-9.12C69.46,50.97,77.31,50.28,84.16,49.1L84.16,49.1z M87.05,62.48
	c-0.17,3.96-1.19,7.71-2.89,11.05c-6.85-1.18-14.7-1.88-23.06-1.94v-9.12H87.05L87.05,62.48z M73.28,35.09
	c10.62,1.08,20.17,3.41,27.84,6.64c-3.03,1.5-6.98,2.82-11.61,3.91c-1.32,0.31-2.69,0.6-4.1,0.87
	C82.51,41.61,78.35,37.68,73.28,35.09L73.28,35.09z M103.79,42.92c9.54,4.54,15.58,10.57,16.21,17.22H89.39
	c-0.16-4.1-1.16-7.99-2.84-11.49c1.2-0.23,2.37-0.49,3.49-0.75C95.66,46.59,100.36,44.89,103.79,42.92L103.79,42.92z M120,62.48
	c-0.63,6.65-6.68,12.68-16.21,17.22c-3.42-1.96-8.12-3.66-13.75-4.98c-1.13-0.26-2.29-0.52-3.49-0.75c1.68-3.5,2.68-7.39,2.84-11.49
	H120L120,62.48z M101.12,80.9c-7.66,3.22-17.21,5.56-27.84,6.64c5.08-2.59,9.23-6.51,12.12-11.41c1.42,0.27,2.79,0.56,4.1,0.87
	C94.14,78.07,98.09,79.4,101.12,80.9L101.12,80.9z M46.58,87.53c-10.62-1.08-20.18-3.41-27.84-6.64c3.03-1.5,6.98-2.82,11.61-3.91
	c1.32-0.31,2.69-0.6,4.1-0.87C37.39,81.06,41.47,84.92,46.58,87.53L46.58,87.53z M16.07,79.7C6.54,75.16,0.5,69.13-0.14,62.48h30.61
	c0.18,4.01,1.1,7.87,2.84,11.49c-1.2,0.23-2.37,0.49-3.49,0.75C24.2,76.04,19.5,77.74,16.07,79.7L16.07,79.7z M-0.14,60.15
	c0.63-6.65,6.68-12.68,16.21-17.22c3.42,1.96,8.12,3.66,13.75,4.98c1.13,0.26,2.29,0.51,3.49,0.75c-1.75,3.62-2.66,7.48-2.84,11.49
	H-0.14L-0.14,60.15z M18.74,41.73c7.66-3.22,17.22-5.56,27.84-6.64c-5.03,2.56-9.26,6.5-12.12,11.41c-1.42-0.27-2.79-0.56-4.1-0.86
	C25.72,44.55,21.77,43.23,18.74,41.73L18.74,41.73z"/>
<path class="st0" d="M4.45,102.72c-1.11,0-2.03-0.37-2.76-1.11c-0.73-0.74-1.09-1.65-1.09-2.74c0-1.09,0.36-2.01,1.09-2.75
	c0.73-0.73,1.65-1.1,2.76-1.1c0.67,0,1.29,0.16,1.86,0.46c0.56,0.32,1.01,0.74,1.32,1.28L6.37,97.5c-0.18-0.33-0.45-0.59-0.78-0.78
	c-0.34-0.18-0.72-0.28-1.14-0.28c-0.72,0-1.3,0.22-1.74,0.68c-0.44,0.45-0.67,1.03-0.67,1.75c0,0.71,0.22,1.29,0.67,1.74
	c0.43,0.46,1.02,0.68,1.74,0.68c0.42,0,0.8-0.1,1.15-0.28c0.34-0.18,0.59-0.43,0.77-0.76l1.26,0.73c-0.31,0.54-0.76,0.96-1.32,1.27
	C5.74,102.56,5.12,102.72,4.45,102.72L4.45,102.72z M10.07,101.18h3.12v1.4H8.61v-7.4h4.53v1.39h-3.07v1.58h2.8v1.37h-2.8V101.18
	L10.07,101.18z M18.27,102.58l-1.49-2.57h-1.11v2.57h-1.46v-7.4h2.96c0.69,0,1.27,0.24,1.74,0.72c0.48,0.48,0.72,1.06,0.72,1.74
	c0,0.46-0.13,0.88-0.39,1.27c-0.27,0.39-0.61,0.69-1.04,0.89l1.64,2.79H18.27L18.27,102.58z M15.67,96.54v2.19h1.5
	c0.28,0,0.51-0.11,0.71-0.33c0.2-0.21,0.3-0.47,0.3-0.77c0-0.31-0.1-0.56-0.3-0.77c-0.2-0.21-0.43-0.31-0.71-0.31H15.67L15.67,96.54
	z M25.6,95.18v1.39h-2v6.01h-1.46v-6.01h-1.99v-1.39H25.6L25.6,95.18z M26.41,95.18h1.46v7.4h-1.46V95.18L26.41,95.18z M33.67,96.57
	h-2.96v1.76h2.88v1.39h-2.88v2.86h-1.46v-7.4h4.42V96.57L33.67,96.57z M34.73,95.18h1.46v7.4h-1.46V95.18L34.73,95.18z
	 M39.02,101.18h3.12v1.4h-4.58v-7.4h4.53v1.39h-3.07v1.58h2.8v1.37h-2.8V101.18L39.02,101.18z M46.11,95.18
	c1.02,0,1.86,0.36,2.55,1.07c0.68,0.71,1.02,1.59,1.02,2.63c0,1.05-0.34,1.92-1.02,2.63c-0.69,0.71-1.53,1.07-2.55,1.07h-2.94v-7.4
	H46.11L46.11,95.18z M46.11,101.18c0.64,0,1.16-0.21,1.56-0.64c0.4-0.42,0.6-0.97,0.6-1.66c0-0.69-0.2-1.23-0.6-1.67
	c-0.4-0.42-0.92-0.64-1.56-0.64h-1.48v4.61H46.11L46.11,101.18z M60.7,98.87c0,0.96-0.31,1.79-0.91,2.5l0.76,0.79l-1.04,0.92
	l-0.8-0.83c-0.57,0.31-1.2,0.47-1.86,0.47c-1.07,0-1.97-0.37-2.72-1.12c-0.75-0.74-1.12-1.65-1.12-2.73c0-1.08,0.37-1.99,1.12-2.74
	c0.75-0.74,1.65-1.11,2.72-1.11c1.07,0,1.98,0.37,2.73,1.11C60.33,96.89,60.7,97.8,60.7,98.87L60.7,98.87z M56.85,101.3
	c0.28,0,0.55-0.04,0.82-0.14l-1.22-1.27l1.04-0.92l1.3,1.35c0.3-0.43,0.44-0.91,0.44-1.45c0-0.71-0.23-1.29-0.69-1.74
	c-0.46-0.46-1.03-0.69-1.7-0.69c-0.68,0-1.25,0.23-1.7,0.69c-0.46,0.46-0.69,1.04-0.69,1.74c0,0.7,0.23,1.28,0.69,1.74
	C55.6,101.06,56.17,101.3,56.85,101.3L56.85,101.3z M69.02,95.18v7.4h-1.45v-4.8l-2.08,3.44h-0.17l-2.08-3.43v4.79h-1.46v-7.4h1.5
	l2.12,3.5l2.12-3.5H69.02L69.02,95.18z M72.92,102.72c-0.73,0-1.35-0.17-1.85-0.49c-0.5-0.33-0.86-0.77-1.06-1.33l1.25-0.73
	c0.28,0.75,0.85,1.13,1.7,1.13c0.41,0,0.71-0.07,0.9-0.22c0.19-0.15,0.29-0.34,0.29-0.56c0-0.26-0.12-0.46-0.35-0.61
	c-0.23-0.14-0.64-0.29-1.25-0.46c-0.33-0.1-0.61-0.2-0.84-0.3c-0.23-0.09-0.46-0.23-0.69-0.4c-0.23-0.16-0.41-0.37-0.53-0.62
	c-0.12-0.25-0.18-0.55-0.18-0.89c0-0.67,0.24-1.2,0.72-1.61c0.47-0.39,1.05-0.59,1.71-0.59c0.6,0,1.13,0.15,1.59,0.43
	c0.46,0.3,0.8,0.71,1.06,1.23l-1.23,0.71c-0.3-0.63-0.77-0.95-1.42-0.95c-0.31,0-0.54,0.06-0.71,0.2c-0.18,0.14-0.27,0.32-0.27,0.54
	c0,0.23,0.1,0.42,0.3,0.56c0.19,0.15,0.56,0.31,1.11,0.48c0.22,0.07,0.4,0.13,0.52,0.16c0.11,0.05,0.27,0.11,0.47,0.18
	c0.2,0.09,0.35,0.16,0.46,0.23c0.11,0.07,0.23,0.17,0.37,0.28c0.14,0.12,0.25,0.24,0.33,0.37c0.07,0.13,0.14,0.27,0.19,0.45
	c0.05,0.18,0.07,0.38,0.07,0.59c0,0.69-0.25,1.23-0.74,1.63C74.37,102.52,73.72,102.72,72.92,102.72L72.92,102.72z M76.56,100.04
	v-1.31h3.97v1.31H76.56L76.56,100.04z M84.54,102.72c-0.92,0-1.65-0.35-2.17-1.05c-0.53-0.7-0.79-1.63-0.79-2.79
	c0-1.16,0.27-2.09,0.79-2.8c0.52-0.7,1.25-1.05,2.17-1.05c0.93,0,1.66,0.35,2.18,1.05c0.52,0.71,0.78,1.64,0.78,2.8
	c0,1.16-0.26,2.09-0.78,2.79C86.2,102.37,85.48,102.72,84.54,102.72L84.54,102.72z M83.42,100.67c0.25,0.41,0.62,0.62,1.12,0.62
	s0.87-0.21,1.13-0.62c0.25-0.41,0.38-1.02,0.38-1.8c0-0.79-0.13-1.39-0.38-1.81c-0.26-0.41-0.64-0.62-1.13-0.62
	s-0.87,0.21-1.12,0.62c-0.25,0.41-0.38,1.02-0.38,1.81C83.04,99.67,83.17,100.26,83.42,100.67L83.42,100.67z M93.86,99.96v1.35
	h-0.79v1.26H91.6v-1.26h-3.5v-1.35l2.46-4.79h1.56l-2.45,4.79h1.92v-1.76h1.47v1.76H93.86L93.86,99.96z M97.34,102.72
	c-0.92,0-1.65-0.35-2.17-1.05c-0.53-0.7-0.79-1.63-0.79-2.79c0-1.16,0.27-2.09,0.79-2.8c0.52-0.7,1.25-1.05,2.17-1.05
	c0.93,0,1.66,0.35,2.18,1.05c0.52,0.71,0.78,1.64,0.78,2.8c0,1.16-0.26,2.09-0.78,2.79C99,102.37,98.27,102.72,97.34,102.72
	L97.34,102.72z M96.22,100.67c0.25,0.41,0.62,0.62,1.12,0.62c0.5,0,0.87-0.21,1.13-0.62c0.25-0.41,0.38-1.02,0.38-1.8
	c0-0.79-0.13-1.39-0.38-1.81c-0.26-0.41-0.64-0.62-1.13-0.62c-0.5,0-0.87,0.21-1.12,0.62c-0.25,0.41-0.38,1.02-0.38,1.81
	C95.84,99.67,95.97,100.26,96.22,100.67L96.22,100.67z M106.66,99.96v1.35h-0.79v1.26h-1.47v-1.26h-3.5v-1.35l2.46-4.79h1.56
	l-2.45,4.79h1.92v-1.76h1.47v1.76H106.66L106.66,99.96z M117.78,102.58l-0.44-1.33h-2.95l-0.44,1.33h-1.57l2.59-7.4h1.81l2.6,7.4
	H117.78L117.78,102.58z M114.85,99.88h2.03l-1.02-3.02L114.85,99.88L114.85,99.88z"/>
<polygon class="st0" points="107.75,103.63 107.15,103.63 111.38,94.12 111.98,94.12 107.75,103.63 "/>
<path class="st0" d="M3.62,17.57h2.44v12.37H3.62V17.57L3.62,17.57z M12.59,30.18c-1.22,0-2.26-0.28-3.1-0.83
	c-0.83-0.55-1.43-1.29-1.77-2.23l2.09-1.22c0.48,1.25,1.43,1.89,2.85,1.89c0.69,0,1.18-0.13,1.5-0.37c0.32-0.25,0.48-0.57,0.48-0.94
	c0-0.44-0.2-0.78-0.59-1.03c-0.39-0.23-1.08-0.49-2.09-0.78c-0.55-0.16-1.03-0.34-1.4-0.5c-0.39-0.16-0.78-0.39-1.15-0.67
	c-0.39-0.27-0.69-0.62-0.88-1.04c-0.2-0.42-0.3-0.92-0.3-1.48c0-1.11,0.41-2.01,1.2-2.69c0.79-0.66,1.75-0.99,2.86-0.99
	c1.01,0,1.89,0.25,2.65,0.73c0.76,0.5,1.34,1.18,1.77,2.05l-2.05,1.18c-0.5-1.06-1.29-1.59-2.37-1.59c-0.51,0-0.9,0.11-1.18,0.34
	c-0.3,0.23-0.45,0.53-0.45,0.9c0,0.39,0.16,0.71,0.5,0.94c0.32,0.25,0.94,0.51,1.86,0.8c0.37,0.12,0.67,0.21,0.87,0.26
	c0.19,0.08,0.46,0.18,0.79,0.3c0.34,0.15,0.59,0.27,0.78,0.39c0.18,0.13,0.39,0.28,0.62,0.48c0.23,0.2,0.43,0.41,0.55,0.62
	c0.13,0.21,0.23,0.46,0.32,0.76c0.09,0.3,0.13,0.64,0.13,0.99c0,1.15-0.41,2.05-1.24,2.72C15.01,29.85,13.92,30.18,12.59,30.18
	L12.59,30.18z M29.1,28.31c-1.25,1.26-2.78,1.87-4.57,1.87c-1.79,0-3.31-0.62-4.55-1.87c-1.25-1.24-1.88-2.76-1.88-4.56
	c0-1.8,0.62-3.32,1.88-4.57c1.24-1.24,2.76-1.86,4.55-1.86c1.79,0,3.31,0.62,4.57,1.86c1.26,1.25,1.88,2.77,1.88,4.57
	C30.98,25.55,30.36,27.07,29.1,28.31L29.1,28.31z M21.69,26.65c0.76,0.76,1.72,1.15,2.85,1.15c1.13,0,2.09-0.39,2.85-1.15
	c0.76-0.76,1.15-1.71,1.15-2.9c0-1.18-0.39-2.15-1.15-2.92c-0.76-0.76-1.72-1.15-2.85-1.15c-1.13,0-2.09,0.39-2.85,1.15
	c-0.76,0.76-1.15,1.73-1.15,2.92C20.54,24.94,20.92,25.89,21.69,26.65L21.69,26.65z M51.33,30.18c-1.54,0-2.76-0.58-3.63-1.76
	c-0.88-1.17-1.33-2.73-1.33-4.67c0-1.94,0.45-3.5,1.33-4.68c0.87-1.16,2.09-1.75,3.63-1.75c1.56,0,2.78,0.59,3.65,1.75
	c0.87,1.19,1.31,2.74,1.31,4.68c0,1.94-0.44,3.5-1.31,4.67C54.11,29.6,52.89,30.18,51.33,30.18L51.33,30.18z M49.46,26.75
	c0.43,0.69,1.04,1.04,1.88,1.04s1.46-0.35,1.9-1.04c0.42-0.69,0.64-1.7,0.64-3.01c0-1.32-0.22-2.33-0.64-3.02
	c-0.44-0.69-1.06-1.04-1.9-1.04s-1.45,0.35-1.88,1.04c-0.42,0.69-0.64,1.7-0.64,3.02C48.82,25.08,49.04,26.06,49.46,26.75
	L49.46,26.75z M62.49,30.18c-1.54,0-2.76-0.58-3.63-1.76c-0.88-1.17-1.33-2.73-1.33-4.67c0-1.94,0.45-3.5,1.33-4.68
	c0.87-1.16,2.09-1.75,3.63-1.75c1.56,0,2.78,0.59,3.65,1.75c0.87,1.19,1.31,2.74,1.31,4.68c0,1.94-0.44,3.5-1.31,4.67
	C65.27,29.6,64.05,30.18,62.49,30.18L62.49,30.18z M60.61,26.75c0.43,0.69,1.04,1.04,1.88,1.04c0.83,0,1.45-0.35,1.9-1.04
	c0.42-0.69,0.64-1.7,0.64-3.01c0-1.32-0.22-2.33-0.64-3.02c-0.44-0.69-1.06-1.04-1.9-1.04c-0.83,0-1.45,0.35-1.88,1.04
	c-0.42,0.69-0.64,1.7-0.64,3.02C59.97,25.08,60.19,26.06,60.61,26.75L60.61,26.75z M78.35,23.4c-0.3,0.3-0.65,0.44-1.06,0.44
	s-0.76-0.14-1.06-0.44c-0.3-0.3-0.44-0.66-0.44-1.06c0-0.41,0.14-0.76,0.44-1.06c0.3-0.3,0.66-0.44,1.06-0.44s0.76,0.14,1.06,0.44
	c0.3,0.3,0.45,0.66,0.45,1.06C78.8,22.74,78.65,23.1,78.35,23.4L78.35,23.4z M78.35,29.73c-0.3,0.3-0.65,0.44-1.06,0.44
	s-0.76-0.14-1.06-0.44c-0.3-0.3-0.44-0.66-0.44-1.06c0-0.41,0.14-0.76,0.44-1.06c0.3-0.3,0.66-0.44,1.06-0.44s0.76,0.14,1.06,0.44
	c0.3,0.3,0.45,0.66,0.45,1.06C78.8,29.07,78.65,29.43,78.35,29.73L78.35,29.73z M80.13,29.94v-1.82l4.23-4.35
	c0.94-0.99,1.42-1.82,1.42-2.48c0-0.48-0.15-0.87-0.45-1.17c-0.3-0.3-0.69-0.44-1.16-0.44c-0.94,0-1.63,0.48-2.07,1.45l-2.05-1.2
	c0.39-0.85,0.95-1.5,1.68-1.94c0.72-0.44,1.54-0.67,2.41-0.67c1.11,0,2.09,0.36,2.88,1.04c0.79,0.71,1.2,1.66,1.2,2.85
	c0,1.29-0.67,2.6-2.03,3.96l-2.43,2.43h4.66v2.35H80.13L80.13,29.94z M94.63,30.18c-1.54,0-2.76-0.58-3.63-1.76
	c-0.88-1.17-1.33-2.73-1.33-4.67c0-1.94,0.45-3.5,1.33-4.68c0.87-1.16,2.09-1.75,3.63-1.75c1.56,0,2.78,0.59,3.65,1.75
	c0.87,1.19,1.31,2.74,1.31,4.68c0,1.94-0.44,3.5-1.31,4.67C97.41,29.6,96.19,30.18,94.63,30.18L94.63,30.18z M92.75,26.75
	c0.43,0.69,1.04,1.04,1.88,1.04c0.83,0,1.45-0.35,1.9-1.04c0.42-0.69,0.64-1.7,0.64-3.01c0-1.32-0.22-2.33-0.64-3.02
	c-0.44-0.69-1.06-1.04-1.9-1.04c-0.83,0-1.45,0.35-1.88,1.04c-0.42,0.69-0.64,1.7-0.64,3.02C92.12,25.08,92.33,26.06,92.75,26.75
	L92.75,26.75z M112.02,22.07c1.18,0,2.19,0.36,3.01,1.06c0.81,0.72,1.22,1.71,1.22,2.99c0,1.27-0.43,2.26-1.27,2.99
	c-0.87,0.73-1.91,1.08-3.15,1.08c-1.01,0-1.89-0.23-2.65-0.67c-0.76-0.44-1.33-1.11-1.67-1.98l2.09-1.22
	c0.3,0.99,1.05,1.48,2.23,1.48c0.62,0,1.11-0.16,1.47-0.46c0.34-0.3,0.51-0.71,0.51-1.22c0-0.51-0.18-0.92-0.51-1.22
	c-0.34-0.3-0.81-0.46-1.4-0.46h-3.75l0.5-6.87h7.03v2.28h-4.76l-0.16,2.22H112.02L112.02,22.07z"/>
<path class="st0" d="M45.35,21.61c0,0.96-0.25,1.79-0.74,2.51h0.01l-3.86,5.82h-2.79l2.76-4.03c-1.29-0.02-2.34-0.45-3.13-1.24
	c-0.82-0.8-1.22-1.8-1.22-3.06c0-1.25,0.43-2.29,1.26-3.09c0.83-0.8,1.89-1.2,3.22-1.2c1.32,0,2.42,0.39,3.26,1.19
	C44.95,19.29,45.35,20.34,45.35,21.61L45.35,21.61z M38.8,21.61c0,0.62,0.2,1.1,0.6,1.47c0.39,0.37,0.87,0.55,1.45,0.55
	c0.6,0,1.09-0.18,1.49-0.55c0.39-0.37,0.58-0.85,0.58-1.47c0-0.62-0.19-1.09-0.58-1.46c-0.39-0.36-0.88-0.53-1.49-0.53
	c-0.59,0-1.06,0.18-1.45,0.55C39,20.53,38.8,21.01,38.8,21.61L38.8,21.61z M71.55,17.57h2.12v12.37h-2.44v-9.79l-2.33,0.65
	l-0.6-2.08L71.55,17.57L71.55,17.57z M103.72,17.57h2.12v12.37h-2.44v-9.79l-2.33,0.65l-0.6-2.08L103.72,17.57L103.72,17.57z"/>
</svg>
