<?xml version="1.0" encoding="utf-8"?>
<!-- Generator: Adobe Illustrator 24.0.1, SVG Export Plug-In . SVG Version: 6.00 Build 0)  -->
<svg version="1.1" id="Layer_1" xmlns="http://www.w3.org/2000/svg" xmlns:xlink="http://www.w3.org/1999/xlink" x="0px" y="0px"
	 viewBox="0 0 120 120" style="enable-background:new 0 0 120 120;" xml:space="preserve">
<style type="text/css">
	.st0{fill:#1F4696;}
	.st1{fill:#1D1D1B;}
</style>
<path class="st0" d="M31.11,49.62c-1.59-0.26-3.45-1.05-3.46-2.36c0-0.54,0.44-1.86,2.66-1.87c2.31,0,2.92,1.31,2.92,2.11h3.7
	c0-1.84-0.53-3.43-1.61-4.5c-1.36-1.06-3.05-1.62-4.78-1.57c-7.55,0.03-8.43,6.32-5.79,9.84c0.54,0.77,2.14,1.56,4.51,2.09
	c1.86,0.51,4.27,1.33,4.28,3.05c0.01,1.71-2.13,1.97-2.93,1.97c-1.32,0-2.11-0.26-2.65-0.78c-0.52-0.58-0.81-1.33-0.79-2.11
	l-4.24,0.02c0,2.13,0.8,3.96,2.13,5.03c4.33,3.42,12.74,2.17,12.71-4.83C37.75,51.81,34.94,50.38,31.11,49.62L31.11,49.62z"/>
<path class="st0" d="M76.7,57.1l25.12-10.95c0.52,1.8,0.79,3.66,0.81,5.54c-0.06,1.78-0.22,3.55-0.5,5.31L76.7,57.1L76.7,57.1z
	 M100.3,64.42L55.27,64.6l-0.02-5.83l28.57-12.29L55.47,46.6l-0.02-6.09l44.5-0.19l0.02,5.04L69.3,58.45l30.99-0.13L100.3,64.42
	L100.3,64.42z M52.98,83.42C28.33,83.52,7.89,72.22,3.84,57.4C7.6,67.71,22.46,75.34,39.67,75.27c11.92-0.05,22.48-3.54,29.36-9.13
	l28.35-0.12C89.22,76.12,72.3,83.34,52.98,83.42L52.98,83.42L52.98,83.42z M58.64,48.18c0.27,1.05,0.28,2.37,0.28,3.68
	c0.01,1.3,0,2.66-0.52,3.99l-4.49,1.84l0.02,5.85c-3.42,3.45-8.43,5.59-14.28,5.62c-10.58,0.06-19.37-7.6-19.41-17.14
	c-0.04-9.53,8.68-17.51,19.26-17.54c5.85-0.02,11.15,2.35,14.59,6.03l0.03,7.69L58.64,48.18L58.64,48.18z M52.71,20.13
	c9.19-0.04,17.92,1.5,25.33,4.36l0.03,7.38l6.92-0.03l-0.02-4.3c5.75,3.14,10.46,7.04,13.35,11.48l-27.81,0.12
	c-6.67-6.6-18.04-10.79-31.04-10.74C22.26,28.47,7.45,36.22,3.78,46.84C7.73,31.7,28.07,20.23,52.71,20.13L52.71,20.13L52.71,20.13z
	 M52.71,18C23.56,18.12,0.05,33.59,0.12,52.11C0.2,70.62,23.84,85.66,52.99,85.54c29.15-0.12,52.89-15.33,52.82-33.88
	C105.73,33.11,81.82,17.88,52.71,18L52.71,18z"/>
<polygon class="st0" points="38.77,45.87 44.07,45.85 44.13,61.74 48.12,61.72 48.05,45.83 53.05,45.81 53.04,41.84 38.76,41.9 
	38.77,45.87 "/>
<path class="st1" d="M52.98,102.48V90.33h1.61v12.15H52.98L52.98,102.48z M56.9,98.58l1.51-0.14c0.07,0.61,0.24,1.11,0.5,1.5
	c0.26,0.39,0.67,0.71,1.22,0.95c0.55,0.24,1.18,0.36,1.86,0.36c0.62,0,1.16-0.09,1.62-0.27c0.47-0.18,0.82-0.43,1.05-0.75
	s0.34-0.67,0.34-1.04c0-0.38-0.11-0.71-0.33-1c-0.22-0.28-0.59-0.52-1.1-0.72c-0.32-0.12-1.05-0.32-2.16-0.59
	c-1.12-0.27-1.9-0.52-2.35-0.76c-0.58-0.31-1.01-0.68-1.29-1.13c-0.29-0.45-0.43-0.96-0.43-1.51c0-0.62,0.18-1.19,0.52-1.72
	c0.35-0.54,0.85-0.94,1.52-1.22c0.67-0.28,1.41-0.42,2.23-0.42c0.9,0,1.69,0.14,2.38,0.43c0.69,0.29,1.22,0.72,1.59,1.28
	c0.37,0.56,0.57,1.2,0.6,1.92l-1.54,0.12c-0.08-0.77-0.36-1.35-0.84-1.74c-0.48-0.39-1.18-0.59-2.12-0.59
	c-0.97,0-1.68,0.18-2.13,0.53c-0.44,0.36-0.67,0.79-0.67,1.29c0,0.44,0.16,0.8,0.47,1.08c0.31,0.28,1.12,0.57,2.43,0.87
	c1.31,0.3,2.2,0.55,2.69,0.77c0.71,0.32,1.23,0.74,1.57,1.24c0.34,0.5,0.5,1.07,0.5,1.72c0,0.65-0.19,1.25-0.55,1.82
	c-0.37,0.57-0.9,1.02-1.59,1.33c-0.69,0.32-1.47,0.48-2.34,0.48c-1.1,0-2.02-0.16-2.76-0.48c-0.74-0.32-1.32-0.8-1.74-1.45
	C57.14,100.12,56.92,99.39,56.9,98.58L56.9,98.58z M68.26,96.57c0-2.01,0.54-3.59,1.63-4.73c1.08-1.14,2.48-1.71,4.2-1.71
	c1.12,0,2.13,0.27,3.03,0.8c0.9,0.54,1.59,1.28,2.06,2.24c0.47,0.96,0.71,2.04,0.71,3.26c0,1.23-0.25,2.33-0.75,3.31
	c-0.5,0.97-1.2,1.71-2.11,2.21c-0.91,0.5-1.9,0.75-2.95,0.75c-1.15,0-2.17-0.28-3.07-0.83c-0.9-0.55-1.59-1.3-2.05-2.26
	C68.49,98.64,68.26,97.63,68.26,96.57L68.26,96.57z M69.92,96.59c0,1.46,0.39,2.61,1.18,3.45c0.79,0.84,1.77,1.26,2.96,1.26
	c1.21,0,2.2-0.42,2.99-1.27c0.78-0.85,1.17-2.05,1.17-3.62c0-0.99-0.17-1.85-0.5-2.59c-0.33-0.74-0.82-1.31-1.47-1.71
	c-0.65-0.4-1.37-0.61-2.17-0.61c-1.14,0-2.12,0.39-2.94,1.17C70.33,93.47,69.92,94.77,69.92,96.59L69.92,96.59z M86.3,99.66
	l1.43-0.12c0.12,0.67,0.35,1.16,0.7,1.46c0.34,0.3,0.78,0.45,1.32,0.45c0.46,0,0.86-0.1,1.21-0.32c0.35-0.21,0.63-0.49,0.85-0.84
	c0.22-0.35,0.4-0.83,0.55-1.42c0.15-0.6,0.22-1.2,0.22-1.82c0-0.06,0-0.17-0.01-0.3c-0.3,0.47-0.7,0.86-1.22,1.16
	c-0.52,0.3-1.07,0.44-1.68,0.44c-1,0-1.85-0.36-2.55-1.09c-0.69-0.73-1.04-1.69-1.04-2.88c0-1.23,0.36-2.22,1.09-2.98
	c0.73-0.75,1.63-1.13,2.73-1.13c0.79,0,1.51,0.21,2.16,0.64c0.65,0.43,1.15,1.03,1.49,1.82c0.34,0.79,0.51,1.93,0.51,3.42
	c0,1.55-0.17,2.79-0.5,3.71c-0.34,0.92-0.84,1.62-1.5,2.1c-0.66,0.48-1.44,0.72-2.34,0.72c-0.95,0-1.73-0.26-2.33-0.79
	C86.78,101.36,86.42,100.62,86.3,99.66L86.3,99.66z M92.39,94.3c0-0.86-0.23-1.53-0.68-2.03c-0.45-0.5-1-0.75-1.64-0.75
	c-0.67,0-1.25,0.27-1.73,0.81c-0.49,0.54-0.73,1.24-0.73,2.1c0,0.77,0.23,1.4,0.69,1.88c0.46,0.48,1.04,0.73,1.73,0.73
	c0.69,0,1.26-0.24,1.7-0.73C92.17,95.83,92.39,95.16,92.39,94.3L92.39,94.3z M95.51,96.48c0-1.43,0.15-2.59,0.44-3.47
	c0.3-0.88,0.74-1.56,1.32-2.03c0.58-0.47,1.31-0.71,2.2-0.71c0.65,0,1.22,0.13,1.72,0.39c0.49,0.26,0.9,0.64,1.22,1.14
	c0.32,0.49,0.57,1.1,0.75,1.81c0.18,0.71,0.27,1.67,0.27,2.87c0,1.43-0.15,2.58-0.44,3.46c-0.29,0.88-0.73,1.56-1.31,2.03
	c-0.58,0.47-1.32,0.71-2.2,0.71c-1.17,0-2.09-0.42-2.76-1.25C95.92,100.42,95.51,98.77,95.51,96.48L95.51,96.48z M97.04,96.49
	c0,2,0.23,3.33,0.7,3.99c0.47,0.66,1.04,0.99,1.73,0.99c0.68,0,1.26-0.33,1.73-0.99c0.47-0.66,0.7-1.99,0.7-3.98
	c0-2-0.23-3.33-0.7-3.99c-0.46-0.66-1.05-0.99-1.75-0.99c-0.68,0-1.23,0.29-1.64,0.87C97.3,93.13,97.04,94.49,97.04,96.49
	L97.04,96.49z M104.96,96.48c0-1.43,0.15-2.59,0.44-3.47c0.3-0.88,0.74-1.56,1.32-2.03c0.58-0.47,1.31-0.71,2.2-0.71
	c0.65,0,1.22,0.13,1.72,0.39c0.49,0.26,0.9,0.64,1.22,1.14c0.32,0.49,0.57,1.1,0.75,1.81c0.18,0.71,0.27,1.67,0.27,2.87
	c0,1.43-0.15,2.58-0.44,3.46c-0.29,0.88-0.73,1.56-1.31,2.03c-0.58,0.47-1.32,0.71-2.2,0.71c-1.17,0-2.09-0.42-2.76-1.25
	C105.36,100.42,104.96,98.77,104.96,96.48L104.96,96.48z M106.48,96.49c0,2,0.23,3.33,0.7,3.99c0.47,0.66,1.04,0.99,1.73,0.99
	c0.68,0,1.26-0.33,1.73-0.99c0.47-0.66,0.7-1.99,0.7-3.98c0-2-0.23-3.33-0.7-3.99c-0.46-0.66-1.05-0.99-1.75-0.99
	c-0.68,0-1.23,0.29-1.64,0.87C106.74,93.13,106.48,94.49,106.48,96.49L106.48,96.49z M120,102.48h-1.49v-9.51
	c-0.36,0.34-0.83,0.69-1.41,1.03c-0.58,0.34-1.11,0.6-1.57,0.77v-1.44c0.84-0.39,1.57-0.86,2.19-1.43c0.63-0.56,1.07-1.1,1.33-1.62
	H120V102.48L120,102.48z"/>
</svg>
